# xmcd
#
# Track frame offsets:
#	150
#	17075
#	33700
#	48625
#	60688
#	74063
#	85913
#	103113
#	114963
#	131568
#	146163
#	157225
#	169563
#	186363
#
# Disc length: 2722 seconds
#
# Revision: 1
# Processed by: cddbd v1.5.2PL0 Copyright (c) Steve Scherf et al.
# Submitted via: audiograbber 1.83.01
#
DISCID=d20aa00e
DTITLE=新格唱片 - 金韻民歌經典系列3花間隨筆
DYEAR=1990
DGENRE=Other
TTITLE0=齊豫 - 橄欖樹
TTITLE1=楊芳儀許\曉菁 - 秋蟬
TTITLE2=王夢麟 - 木棉道
TTITLE3=王夢麟 - 小草
TTITLE4=王海玲 - 三月走過
TTITLE5=王夢麟 - 野鴿
TTITLE6=包美聖 - 圈兒詞
TTITLE7=陳明韶 - 讓我們看雲去
TTITLE8=包美聖 - 蘭花草
TTITLE9=楊芳儀許\曉菁 - 夜玫瑰
TTITLE10=楊芳儀許\曉菁 - 聽泉
TTITLE11=包美聖 - 小茉莉
TTITLE12=劉藍溪 - 野薑花的回憶
TTITLE13=陶恩惠 - 愛的哲理
EXTD=
EXTT0=
EXTT1=
EXTT2=
EXTT3=
EXTT4=
EXTT5=
EXTT6=
EXTT7=
EXTT8=
EXTT9=
EXTT10=
EXTT11=
EXTT12=
EXTT13=
PLAYORDER=
